<svg width="32" height="32" viewBox="0 0 32 32" fill="none" xmlns="http://www.w3.org/2000/svg">
<path d="M31.8396 15.8993C31.6875 15.4704 31.3232 15.2166 30.9425 15.0451L28.5704 14.1094V4.86086C28.5704 4.48169 28.4199 4.11805 28.152 3.84994C27.8841 3.58182 27.5208 3.4312 27.1419 3.4312H21.7135V1.14373C21.7135 0.840396 21.5931 0.549483 21.3788 0.334991C21.1645 0.1205 20.8738 0 20.5707 0H11.4281C11.125 0 10.8343 0.1205 10.62 0.334991C10.4057 0.549483 10.2853 0.840396 10.2853 1.14373V3.4312H4.85688C4.47801 3.4312 4.11466 3.58182 3.84676 3.84994C3.57886 4.11805 3.42835 4.48169 3.42835 4.86086V14.1151L1.06557 15.0487C0.684863 15.2202 0.309875 15.4776 0.157022 15.9065C0.0041698 16.3354 -0.0686851 16.7507 0.0855959 17.2646L3.73191 28H3.80763C6.24469 28 8.37891 26.7555 9.90101 24.8676C11.4238 26.7555 13.5566 27.8785 15.9937 27.8785C18.4308 27.8785 20.565 26.7519 22.0871 24.864C23.6099 26.7519 25.7427 28 28.1797 28H28.2555L31.9161 17.2654C32.0703 16.8365 31.9925 16.3289 31.8396 15.8993ZM15.9994 9.14986L5.714 13.2123V6.0046C5.714 5.92876 5.7441 5.85603 5.79768 5.80241C5.85126 5.74879 5.92393 5.71866 5.9997 5.71866H25.9991C26.0749 5.71866 26.1475 5.74879 26.2011 5.80241C26.2547 5.85603 26.2848 5.92876 26.2848 6.0046V13.2072L15.9994 9.14986Z" fill="black"/>
<path d="M22.3113 28C18.6185 30.2659 13.3815 30.2653 9.6887 28C9.6887 28 6.46309 31.9369 3 31.9369L3.9421 31.9994C6.05246 31.9994 8.0872 31.2664 9.9714 30.4002C11.8342 31.2541 13.9017 31.6999 16 31.6999C18.0983 31.6999 20.1658 31.2541 22.0286 30.4002C23.9128 31.267 25.9475 32 28.0579 32L29 31.9375C25.6323 31.9369 22.3113 28 22.3113 28Z" fill="black"/>
</svg>
